<?xml version="1.0" encoding="UTF-8" standalone="no"?>
<svg
   xmlns:dc="http://purl.org/dc/elements/1.1/"
   xmlns:cc="http://creativecommons.org/ns#"
   xmlns:rdf="http://www.w3.org/1999/02/22-rdf-syntax-ns#"
   xmlns:svg="http://www.w3.org/2000/svg"
   xmlns="http://www.w3.org/2000/svg"
   xmlns:sodipodi="http://sodipodi.sourceforge.net/DTD/sodipodi-0.dtd"
   xmlns:inkscape="http://www.inkscape.org/namespaces/inkscape"
   sodipodi:docname="drawing3.svg"
   inkscape:version="1.0 (4035a4fb49, 2020-05-01)"
   id="svg8"
   version="1.1"
   viewBox="0 0 210 297"
   height="297mm"
   width="210mm">
  <defs
     id="defs2">
    <clipPath
       id="clipPath26"
       clipPathUnits="userSpaceOnUse">
      <path
         sodipodi:nodetypes="cssssssccscssc"
         id="path28"
         d="m 88.446427,-273.65476 c -25.265499,-4.92892 -83.6003928,15.55696 -110.369045,49.13691 -41.317913,51.83126 -0.922976,-0.89162 -12.851191,14.36309 -28.22239,36.09295 -26.31267,42.31994 -30.238097,48.38095 -16.701209,25.78733 -6.549451,84.401357 -5.291664,89.958334 11.368844,50.22823 46.910271,90.502326 65.7678558,104.321428 15.2076682,11.144393 30.1063952,20.384373 45.3571412,23.434524 64.255953,12.851193 84.666663,6.047618 84.666663,6.047618 0,0 56.0496,-20.870537 71.81548,-40.065475 67.53887,-59.29706 51.35608,-139.314409 48.38096,-152.702379 l -1.51192,-6.80357 c 0,0 -2.41045,-32.56319 -25.70237,-66.52381 0,0 -34.54628,-33.54878 -46.86905,-43.08929 -12.27977,-9.50721 -56.69643,-30.23809 -83.154763,-26.45833 z"
         style="fill:none;stroke:#000000;stroke-width:0.264583px;stroke-linecap:butt;stroke-linejoin:miter;stroke-opacity:1" />
    </clipPath>
    <clipPath
       id="clipPath82"
       clipPathUnits="userSpaceOnUse">
      <path
         sodipodi:nodetypes="ccccsssssssssssssssc"
         id="path84"
         d="m -52.384828,-570.35316 c -16.036171,3.20722 -16.570711,3.20722 -16.570711,3.20722 l -15.501631,7.48356 -17.63979,19.24341 c 0,0 -9.08716,5.87991 -11.75986,21.9161 -2.67269,16.03615 -2.67269,-13.89804 -2.67269,16.03615 0,29.9342 -7.48355,6.94902 0,29.9342 7.48354,22.98517 -12.2944,-1.60362 7.48354,22.98517 19.777948,24.58881 -4.81085,12.82893 20.312488,24.58881 25.123333,11.75986 1.069078,10.69078 25.123333,11.75986 24.054258,1.06907 0,8.5526 24.054258,1.06907 24.054258,-7.48355 7.483546,8.0181 24.054258,-7.48355 16.5707111,-15.50162 2.138157,2.67269 16.5707111,-16.03616 14.4325549,-18.70887 14.4325549,-19.24341 14.4325549,-19.24341 l 4.081548,-9.65247 c 0.7384,-1.74625 3.046694,-10.63472 2.867459,-14.93634 -1.069077,-25.65786 3.741773,-12.2944 -1.069078,-25.65786 l -4.810851,-13.36347 C 12.790087,-529.00461 6.4144686,-543.62623 6.4144686,-543.62623 -10.689718,-560.06286 -26.192414,-566.6114 -52.384828,-570.35316 Z"
         style="fill:none;stroke:#000000;stroke-width:0.264583px;stroke-linecap:butt;stroke-linejoin:miter;stroke-opacity:1" />
    </clipPath>
    <clipPath
       id="clipPath88"
       clipPathUnits="userSpaceOnUse">
      <path
         sodipodi:nodetypes="csccsscsssssscsssssccsssscssscscscc"
         id="path90"
         d="m -52.384828,-570.35316 c 0,0 -13.898017,-2.67269 0,0 13.898015,2.67269 13.898015,2.13815 13.898015,2.13815 l 17.63979,5.87991 c 0,0 5.87993,2.67272 11.2253199,6.94902 5.3453906,4.27633 -5.3453899,-3.20723 5.3453906,4.27633 l 10.6907811,7.48352 c 0,0 -8.0180859,-20.31251 0,0 8.0180854,20.31249 3.7417734,6.41448 8.5526244,20.31249 4.810852,13.89801 2.672696,1.06908 4.276313,13.89801 1.603617,12.82896 1.069078,-0.53454 1.603617,12.82896 0.534539,13.36346 2.138156,1.60361 0.534539,13.36346 -1.603617,11.75986 2.672695,-4.81086 -1.603617,11.75986 l -4.276312,16.57072 c 0,0 9.621703,-12.29439 0,0 -9.6217034,12.2944 -1.603618,2.13815 -9.6217034,12.2944 -8.0180858,10.15624 2.6726952,0.53453 -8.5526248,10.15624 -11.2253198,9.6217 2.6726952,3.74176 -11.2253198,9.6217 -13.898015,5.87992 3.207234,0.53454 -13.898015,5.87992 l -17.105251,5.3454 -19.777946,-3.20722 c 0,0 1.603619,4.2763 -12.828936,-5.87994 -14.432556,-10.15625 -2.147899,1.61379 -14.432556,-10.15625 -12.274041,-11.75985 0.937604,8.53559 -12.294391,-11.22532 -6.05807,-9.04721 -0.79789,-1.97966 -5.87993,-14.9671 l -4.81085,-12.2944 c 0.39842,0.39844 -1.56494,4.31501 -3.74178,-19.24341 -1.65915,-17.95576 0.53454,-1.06907 3.74178,-17.63977 3.20723,-16.57072 -6.41447,-3e-5 3.20723,-17.10526 l 9.6217,-17.10523 c 0,0 -17.63979,19.24341 0,0 l 17.63979,-19.24341 c 0,0 -15.50163,7.48355 0,0 l 15.501631,-7.48356 z"
         style="fill:none;stroke:#000000;stroke-width:0.264583px;stroke-linecap:butt;stroke-linejoin:miter;stroke-opacity:1" />
    </clipPath>
    <clipPath
       id="clipPath369"
       clipPathUnits="userSpaceOnUse">
      <path
         sodipodi:nodetypes="cssssssssccsssscssc"
         id="path371"
         d="m 48.380952,-434.67261 c 14.741072,27.97022 -4.535713,-9.07145 14.741072,27.97022 19.276785,37.04166 4.768488,13.20623 19.276785,37.04166 15.149269,24.88851 9.038987,24.01184 13.229167,24.56847 31.785824,4.22251 2.976073,1.66227 23.812494,3.40178 21.21929,1.77146 2.39578,0.79943 21.16667,1.88989 28.71734,1.66825 9.96862,1.42007 28.34822,1.13392 30.72419,-0.47828 28.13283,0.22241 30.99404,-1.13392 9.64732,-4.57327 -22.67857,13.22917 20.03274,-9.82739 42.7113,-23.05656 32.88393,-18.14283 32.88393,-18.14283 l 17.38691,-8.69346 c 0,0 3.77976,-1.51191 -17.76489,-28.34823 -21.54464,-26.83632 -3.02381,0 -21.92262,-26.83632 -18.89881,-26.83629 -3.66233,-6.7927 -18.89881,-26.83629 -15.39189,-20.24803 -4.068,-19.24902 -14.74107,-20.41072 -56.02754,-6.09833 -54.80654,4.53572 -54.80654,4.53572 0,0 0,0 -13.22917,5.66963 -33.582661,14.39254 -4.15774,3.4018 -33.261904,15.11906 -29.104167,11.71725 -47.247024,18.89881 -47.247024,18.89881 z"
         style="fill:none;stroke:#000000;stroke-width:0.264583px;stroke-linecap:butt;stroke-linejoin:miter;stroke-opacity:1" />
    </clipPath>
    <clipPath
       id="clipPath389"
       clipPathUnits="userSpaceOnUse">
      <path
         sodipodi:nodetypes="csssssssssssssssssssssssssssssssssssssssssssssssc"
         id="path391"
         d="m 113.77083,-441.85417 c -6.80357,3.40178 -3.59077,1.32292 -6.80357,3.40178 -3.2128,2.07888 0.75595,-1.32292 -3.59077,2.07888 -4.346729,3.40178 -0.94494,0.56695 -4.346729,3.40178 -3.401785,2.83482 -0.944941,-0.37796 -3.401785,2.83482 -2.456844,3.21281 -0.188987,0 -2.456844,3.21281 -2.267858,3.21278 -0.566965,0.37796 -2.267858,3.40177 -1.700892,3.02382 0.566965,-1.32291 -1.700892,3.21281 -2.267858,4.5357 -0.944941,0.75594 -2.267858,4.5357 -1.322919,3.77976 -0.566965,-0.94493 -1.322919,3.5908 -0.755949,4.53569 -0.188987,0.94493 -0.755949,4.72469 -0.566965,3.77975 -0.188989,-1.13393 -0.566965,3.96875 -0.377976,5.10267 -0.755952,0.37798 -0.377976,5.10267 0.377976,4.72472 -1.322919,-1.32292 0.377976,4.91368 1.70089,6.23663 0,1.7009 1.70089,6.42562 1.700895,4.72469 -0.377976,0.75594 1.700895,4.72469 2.078868,3.96875 -1.322917,-0.56697 2.078868,4.15775 3.401788,4.72469 0,0.37798 3.590774,4.72469 3.590772,4.34673 -0.377978,0.75596 3.590772,4.34673 3.96875,3.59077 -0.377976,0.75594 3.96875,3.77976 4.34673,3.02382 0.37798,1.32291 4.34673,2.83482 3.96875,1.51191 0.37797,0.37799 3.96875,1.51191 3.59077,1.13393 0.37797,0.18899 3.59077,1.13393 3.2128,0.94493 -0.37797,0.75594 3.2128,0.94493 3.59077,0.18899 -0.75595,0.37798 3.59077,0.18899 4.34673,-0.18899 0,0.56698 4.34673,-0.18899 4.34673,-0.75594 -0.75595,0.94496 4.34673,-0.75594 5.10267,-1.7009 -0.56697,1.32292 5.10267,-1.7009 5.66965,-3.02382 2.26786,-0.56695 5.66965,-3.02382 3.40178,-2.45684 -0.75596,0.94496 3.40178,-2.45684 4.15774,-3.40177 0.94494,0.75597 4.15774,-3.40177 3.2128,-4.15775 -1.70089,3.21278 3.2128,-4.15775 4.91369,-7.37052 2.26785,-2.26785 4.91369,-7.55951 2.64583,-5.29167 1.88988,-0.94496 2.64583,-5.29167 0.75595,-4.34673 0.18899,-1.7009 0.75595,-4.53573 0.56697,-2.83482 0.18899,1.70091 0.56697,-2.83482 0.37797,-4.5357 0.0872,0.56237 0.37797,-4.72469 0.18899,-3.43604 0.9185,2.71499 0.18899,-5.29167 -0.34881,-3.82828 1.13441,2.24795 -0.56696,-5.10267 -1.2925,-5.58411 3.77167,8.59538 -1.88988,-5.66965 -3.24386,-8.17335 -0.92829,-2.84576 -4.15774,-7.74851 -3.15698,-4.79274 3.68703,5.38488 -3.2128,-4.91368 -3.34768,-4.99669 3.65502,4.15102 -4.15774,-4.53573 -2.25749,-2.51002 1.2866,0.87228 -5.10268,-3.77976 -5.55502,-4.0446 -0.18898,-1.13392 -6.04761,-3.59076 -5.85863,-2.45687 -0.56697,-1.8899 -5.85863,-2.45687 -5.29167,-0.56695 -2.26786,-0.56695 -5.29167,-0.56695 -3.02381,0 0.18899,-0.56698 -3.2128,0 -3.40178,0.56695 -0.94494,-0.18899 -6.04762,1.13392 z"
         style="fill:none;stroke:#000000;stroke-width:0.264583px;stroke-linecap:butt;stroke-linejoin:miter;stroke-opacity:1" />
    </clipPath>
    <clipPath
       id="clipPath395"
       clipPathUnits="userSpaceOnUse">
      <path
         sodipodi:nodetypes="csscssssssssssssssssssssssssssssssssssssssssssssssssssc"
         id="path397"
         d="m 113.77083,-441.85417 c -6.23661,3.77976 -2.64583,1.51191 -6.23661,3.77976 -3.59077,2.26785 -1.88988,0.94493 -3.77976,2.26785 -1.88988,1.32292 -1.88988,1.51191 -1.88988,1.51191 0,0 -0.75595,0.37798 -3.212795,2.45684 -2.456844,2.07889 -0.566965,0 -2.456844,2.07889 -1.889882,2.07885 -0.188992,-0.189 -1.889882,2.07885 -1.700892,2.26788 0.377976,-0.56695 -1.700892,2.45684 -2.078871,3.02382 -0.566968,0.189 -2.078871,3.21281 l -1.511906,3.02382 c -1.511901,3.02379 -1.133925,1.32292 -1.511901,3.02379 -0.377978,1.7009 0.188987,-0.37796 -0.377978,1.7009 -0.566965,2.07889 0.188989,-1.88986 -0.566965,2.07889 l -0.755952,3.96875 c -0.755954,3.96875 -0.755954,0.37795 -0.755954,4.15771 0,3.77979 0.188992,0.37798 0,3.77979 -0.188984,3.40177 -0.755949,0.18896 -0.188984,3.59076 0.566962,3.40178 -0.377981,-0.56697 0.566962,3.59077 0.944941,4.15774 -0.377978,0.37798 0.944941,4.15774 1.322917,3.77976 0.188987,0.56698 1.322917,3.77976 1.13393,3.21281 -0.755952,-0.37799 1.13393,3.21281 1.889879,3.59076 -0.755954,0.18899 1.889879,3.77976 2.645833,3.59076 -0.755954,-0.75597 2.83482,3.77975 3.590774,4.53573 0.566965,1.7009 3.590774,4.53573 3.023811,2.8348 -0.377973,0.18896 3.023811,2.8348 3.40178,2.64583 -0.188991,0.94496 3.40178,2.64583 3.59078,1.7009 -1.88988,-0.56695 3.59078,1.7009 5.48065,2.26785 2.07887,1.32292 5.48065,2.26785 3.40179,0.94496 0.37798,0.94496 3.40179,0.94496 h 3.02381 c 4.15774,0 0,0.75594 4.15774,0 4.15773,-0.75597 -0.56697,0.37796 4.15773,-0.94496 4.72471,-1.32292 0.75596,0.94496 4.9137,-1.13392 4.15773,-2.07886 0,0.75596 4.15773,-2.26785 4.15774,-3.02382 0.56697,0.18899 4.34673,-3.02382 3.77976,-3.21278 0.37798,0.37798 3.77976,-3.21278 3.40179,-3.5908 0,0.94493 3.40179,-3.96875 3.40178,-4.91371 0.18898,1.13392 3.40178,-4.91371 3.2128,-6.04761 1.51191,-0.94494 3.2128,-6.04761 1.70089,-5.10267 0.75595,-0.37798 1.88988,-5.10267 1.13393,-4.72472 0.75595,-0.37799 1.13393,-4.72472 0.37798,-4.34671 0.75595,-0.56695 0.37798,-4.5357 -0.37798,-3.96875 0.18898,1.13392 -0.37798,-3.77976 -0.56696,-4.91371 0.75595,-1.7009 -0.56696,-5.10267 -1.32292,-3.40181 0.94494,1.88986 -1.32292,-3.40181 -2.26786,-5.29166 0.18899,-0.37798 -2.26786,-5.29166 -2.45684,-4.91368 0,-1.13393 -2.45684,-4.91368 -2.45685,-3.77976 2.02386,1.63824 -2.45685,-3.77976 -5.49032,-6.6388 -2.62694,-3.97828 -4.15774,-5.66965 -4.96236,-5.48286 0.24773,-1.19521 -4.91369,-4.91369 -5.31624,-3.83 -6.96344,-4.90947 -5.66964,-3.59079 1.17049,1.19301 -0.64243,-1.19499 -3.59077,-1.13392 -4.11749,0.0853 -0.85708,-0.9955 -4.15774,-0.94494 -4.1744,0.0639 -1.32292,-0.37798 -4.34673,-0.37798 -3.02381,0 1.51191,-0.37796 -7.9375,0.37798 z"
         style="fill:none;stroke:#000000;stroke-width:0.264583px;stroke-linecap:butt;stroke-linejoin:miter;stroke-opacity:1" />
    </clipPath>
  </defs>
  <sodipodi:namedview
     showguides="false"
     inkscape:window-maximized="0"
     inkscape:window-y="0"
     inkscape:window-x="120"
     inkscape:window-height="696"
     inkscape:window-width="1274"
     showgrid="false"
     inkscape:document-rotation="0"
     inkscape:current-layer="layer1"
     inkscape:document-units="mm"
     inkscape:cy="-1441.6667"
     inkscape:cx="400"
     inkscape:zoom="1.4"
     inkscape:pageshadow="2"
     inkscape:pageopacity="0.0"
     borderopacity="1.0"
     bordercolor="#666666"
     pagecolor="#ffffff"
     id="base" />
  <metadata
     id="metadata5">
    <rdf:RDF>
      <cc:Work
         rdf:about="">
        <dc:format>image/svg+xml</dc:format>
        <dc:type
           rdf:resource="http://purl.org/dc/dcmitype/StillImage" />
        <dc:title></dc:title>
      </cc:Work>
    </rdf:RDF>
  </metadata>
  <g
     id="layer1"
     inkscape:groupmode="layer"
     inkscape:label="Layer 1" />
</svg>
